<?xml version="1.0" encoding="utf-8"?>
<!-- Generator: Adobe Illustrator 27.5.0, SVG Export Plug-In . SVG Version: 6.00 Build 0)  -->
<svg version="1.1" id="Layer_1" xmlns="http://www.w3.org/2000/svg" xmlns:xlink="http://www.w3.org/1999/xlink" x="0px" y="0px"
	 viewBox="0 0 4000 4000" style="enable-background:new 0 0 4000 4000;" xml:space="preserve">
<g>
	<g>
		<rect style="fill:#FDD907;" width="4000" height="4000"/>
	</g>
	<g>
		<g>
			<ellipse style="fill:#FCB70B;" cx="2026.595" cy="2942.312" rx="1289.894" ry="397.82"/>
		</g>
		<g>
			<path style="fill:#FFB743;" d="M3089.655,2907.695c-120.492,121.873-433.178,254.506-1055.428,254.506
				s-934.991-132.633-1055.484-254.506c-77.278-78.142-68.647-228.728-59.612-276.199c11.047-57.542,48.104-87.003,48.104-87.003
				l1066.936,130.331h0.056l1066.936-130.331c0,0,37.114,29.461,48.105,87.003
				C3158.302,2678.967,3166.933,2829.553,3089.655,2907.695z"/>
		</g>
		<g>
			<path style="fill:#FFB743;" d="M3089.655,2907.695c-120.492,121.873-433.178,254.506-1055.428,254.506
				s-934.991-132.633-1055.484-254.506c-77.278-78.142-68.647-228.728-59.612-276.199c11.047-57.542,48.104-87.003,48.104-87.003
				l1066.936,130.331h0.056l1066.936-130.331c0,0,37.114,29.461,48.105,87.003
				C3158.302,2678.967,3166.933,2829.553,3089.655,2907.695z"/>
		</g>
		<g>
			<path style="fill:#FFD283;" d="M2103.239,3060.726c-3.358,36.592,456.609,25.323,710.899-79.814
				c203.229-84.026,277.232-170.54,262.952-191.428c-12.838-18.779-95.281,93.053-474.552,178.435
				C2344.956,3025.906,2106.597,3024.133,2103.239,3060.726z"/>
		</g>
		<g>
			<path style="fill:#FF8327;" d="M1601.508,3136.788c-342.207-44.334-534.32-139.628-622.776-229.084
				c-77.255-78.15-68.631-228.716-59.585-276.205c11.044-57.534,48.068-86.985,48.068-86.985l427.403,52.222
				c-4.418,10.097-8.257,21.72-10.781,34.762c-9.045,47.489-14.831,294.927,73.521,402.475
				C1497.695,3083.094,1544.342,3115.594,1601.508,3136.788z"/>
		</g>
		<g>
			<path style="fill:#FF8327;" d="M3145.249,2615.144c-9.782,17.197-22.877,33.132-40.336,46.332
				c-122.273,92.402-439.446,193.007-1070.69,193.007s-948.469-100.605-1070.69-193.007c-17.459-13.2-30.607-29.188-40.337-46.385
				c14.041-46.7,44.019-70.576,44.019-70.576l1066.955,130.319h0.053l1066.956-130.319
				C3101.179,2544.514,3131.259,2568.391,3145.249,2615.144z"/>
		</g>
		<g>
			<path style="fill:#512717;" d="M2034.227,3181.085c-732.651,0-991.592-181.905-1068.91-260.114
				c-82.89-83.813-74.836-239.924-64.736-293.005c12.236-63.709,53.164-96.873,54.901-98.254c3.966-3.149,9.04-4.562,14.041-3.964
				l1064.676,130.056l1064.676-130.056c4.996-0.615,10.065,0.812,14.027,3.954c1.742,1.381,42.753,34.552,54.92,98.251
				c10.099,53.091,18.154,209.199-64.736,293.019C3025.76,2999.18,2766.819,3181.085,2034.227,3181.085z M973.708,2564.308
				c-9.45,9.799-28.936,33.776-36.035,70.75c-8.45,44.417-16.588,187.482,54.496,259.361
				c73.992,74.838,323.643,248.9,1042.058,248.9c718.361,0,968.012-174.063,1042.004-248.9l0,0
				c71.084-71.884,62.946-214.944,54.491-259.392c-7.055-36.925-26.531-60.882-36.035-70.718l-1058.172,129.261
				c-1.512,0.185-3.117,0.185-4.63,0L973.708,2564.308z"/>
		</g>
		<g>
			<path style="fill:#FF3B3B;" d="M1295.599,2697.535c0,0-35.052,33.024-31.876,80.558c3.755,56.209,92.743,60.25,114.406,103.575
				s-17.659,127.169-14.753,210.992c0,0,26.961,39.144,104.292,22.897c0,0-0.181-30.125-10.335-81.573
				c-10.154-51.449-15.57-119.822,25.047-150.962c40.618-31.14,111.021-40.617,121.176-108.313
				C1613.711,2707.013,1295.599,2697.535,1295.599,2697.535z"/>
		</g>
		<g>
			<path style="fill:#FF3B3B;" d="M1603.56,2774.703c-4.365,29.03-19.775,47.331-39.234,61.268
				c-25.821,18.564-58.743,29.293-81.935,47.068c-40.652,31.134-35.237,99.501-25.033,150.935
				c10.15,51.434,10.308,81.568,10.308,81.568c-77.308,16.251-104.287-22.877-104.287-22.877
				c-2.893-83.829,36.393-167.658,14.726-210.993c-20.458-40.968-101.184-46.806-113.069-94.926
				c-0.683-2.735-1.104-5.627-1.315-8.678c-3.156-47.489,31.87-80.516,31.87-80.516S1613.71,2707.019,1603.56,2774.703z"/>
		</g>
		<g>
			<path style="fill:#FF3B3B;" d="M1603.56,2774.703c-4.365,29.03-19.775,47.331-39.234,61.268
				c-25.821,18.564-58.743,29.293-81.935,47.068c-40.652,31.134-35.237,99.501-25.033,150.935
				c10.15,51.434,10.308,81.568,10.308,81.568c-18.828,3.944-34.658,4.628-47.858,3.366c-40.967-3.839-56.429-26.243-56.429-26.243
				c-2.893-83.829,36.393-167.658,14.726-210.993c-1.631-3.261-3.628-6.258-5.942-9.099
				c-26.874-33.079-96.188-41.493-107.127-85.827c-0.683-2.735-1.104-5.627-1.315-8.678c-3.156-47.489,31.87-80.516,31.87-80.516
				S1613.71,2707.019,1603.56,2774.703z"/>
		</g>
		<g style="opacity:0.5;">
			<path style="fill:#FFFFFF;" d="M1419.808,3118.907c-40.967-3.839-56.429-26.243-56.429-26.243
				c-2.893-83.829,36.393-167.658,14.726-210.993c-1.631-3.261-3.628-6.258-5.942-9.099c6.836-3.208,11.833-5.574,11.833-5.574
				s31.344,19.301,17.933,107.022C1392.146,3038.023,1383.205,3085.618,1419.808,3118.907z"/>
		</g>
		<g>
			<path style="fill:#DD2A2A;" d="M1603.56,2774.703c-4.365,29.03-19.775,47.331-39.234,61.268
				c-122.377-1.63-228.611-26.926-299.292-49.225c-0.683-2.735-1.104-5.627-1.315-8.678c-3.156-47.489,31.87-80.516,31.87-80.516
				S1613.71,2707.019,1603.56,2774.703z"/>
		</g>
		<g>
			<path style="fill:#512717;" d="M1432.288,3138.372c-59.545,0-83.3-33.312-84.466-35c-2.039-2.966-3.196-6.457-3.318-10.058
				c-1.356-39.111,5.889-77.692,12.28-111.731c7.05-37.523,13.704-72.965,4.454-91.47c-6.664-13.326-25.618-23.089-45.685-33.422
				c-30.224-15.563-67.839-34.935-70.674-77.338c-3.727-55.784,36.074-93.963,37.771-95.561c3.649-3.432,8.601-5.296,13.509-5.13
				c44.724,1.332,270.148,10.765,316.15,65.82c10.426,12.473,11.148,24.845,9.923,33.027c-8.635,57.557-53.92,80.317-90.306,98.605
				c-14.183,7.13-27.585,13.863-38.059,21.896c-25.428,19.496-31.492,64.017-18.012,132.32
				c10.387,52.596,10.689,83.813,10.694,85.118c0.054,8.974-6.216,16.746-14.997,18.593
				C1457.024,3137.091,1443.963,3138.372,1432.288,3138.372z M1382.11,3085.21c7.084,6.277,26.653,18.976,65.732,14.485
				c-1.127-13.329-3.61-34.561-9.036-62.053c-16.495-83.573-5.698-140.638,32.083-169.606c13.309-10.201,28.951-18.064,44.08-25.667
				c34.439-17.31,64.18-32.258,69.913-70.464c0.054-0.342,0.176-1.144-1.552-3.205c-25.101-30.043-175.533-48.161-279.598-51.998
				c-8.05,9.885-23.033,32.271-21.169,60.133c1.317,19.693,19.871,30.622,50.281,46.28c24.579,12.658,49.993,25.745,62.175,50.107
				c14.934,29.875,7.499,69.476-1.117,115.332C1388.262,3018.59,1381.915,3052.378,1382.11,3085.21z"/>
		</g>
		<g>
			<path style="fill:#89522C;" d="M3103.235,2601.056c-230.627,193.455-871.212,204.428-1069.008,204.428
				s-838.438-10.974-1069.063-204.428c-129.124-108.351-46.667-354.744-46.667-354.744l1115.73,85.967l1115.731-85.967
				C3149.958,2246.313,3232.358,2492.706,3103.235,2601.056z"/>
		</g>
		<g>
			<path style="fill:#AA6333;" d="M3077.691,2572.661c-225.101,188.858-850.4,199.536-1043.468,199.536
				c-193.068,0-818.419-10.677-1043.519-199.536c-61.601-51.693-49.384-66.248,0-24.77
				c225.1,188.807,850.451,199.536,1043.519,199.536c193.068,0,818.367-10.729,1043.468-199.536
				C3127.125,2506.362,3139.343,2520.916,3077.691,2572.661z"/>
		</g>
		<g>
			<path style="fill:#633B20;" d="M2470.236,2622.851c20.189,17.805,47.766,31.486,71.489,13.887
				c7.059-5.242,13.443-12.845,19.664-21.757C2564.617,2676.125,2480.55,2680.275,2470.236,2622.851L2470.236,2622.851z"/>
		</g>
		<g>
			<path style="fill:#633B20;" d="M1912.011,2710.757c20.19,17.803,47.767,31.487,71.491,13.887
				c7.059-5.242,13.443-12.845,19.663-21.756C2006.39,2764.032,1922.331,2768.181,1912.011,2710.757L1912.011,2710.757z"/>
		</g>
		<g>
			<path style="fill:#633B20;" d="M1817.475,2618.353c20.19,17.804,47.768,31.487,71.491,13.887
				c7.059-5.244,13.443-12.845,19.663-21.759C1911.855,2671.627,1827.791,2675.775,1817.475,2618.353L1817.475,2618.353z"/>
		</g>
		<g>
			<path style="fill:#633B20;" d="M2715.05,2655.529c20.188,17.804,47.77,31.486,71.492,13.887
				c7.059-5.242,13.44-12.845,19.663-21.756C2809.427,2708.803,2725.367,2712.953,2715.05,2655.529L2715.05,2655.529z"/>
		</g>
		<g>
			<path style="fill:#633B20;" d="M2787.439,2507.656c20.19,17.804,47.768,31.487,71.491,13.887
				c7.059-5.242,13.443-12.845,19.664-21.757C2881.816,2560.931,2797.755,2565.079,2787.439,2507.656L2787.439,2507.656z"/>
		</g>
		<g>
			<path style="fill:#633B20;" d="M2284.891,2698.845c20.19,17.805,47.767,31.484,71.492,13.89
				c7.059-5.244,13.443-12.848,19.663-21.759C2379.268,2752.121,2295.206,2756.269,2284.891,2698.845L2284.891,2698.845z"/>
		</g>
		<g>
			<path style="fill:#633B20;" d="M1526.271,2679.196c20.189,17.805,47.764,31.484,71.489,13.889
				c7.059-5.244,13.443-12.848,19.663-21.759C1620.652,2732.471,1536.585,2736.62,1526.271,2679.196L1526.271,2679.196z"/>
		</g>
		<g>
			<path style="fill:#633B20;" d="M1175.492,2630.467c17.894,20.112,43.621,37.017,69.294,22.41
				c7.64-4.354,14.895-11.13,22.144-19.227C1262.754,2694.737,1178.808,2688.719,1175.492,2630.467L1175.492,2630.467z"/>
		</g>
		<g>
			<path style="fill:#633B20;" d="M992.582,2541.844c20.19,17.804,47.765,31.485,71.492,13.89
				c7.059-5.244,13.443-12.845,19.663-21.759C1086.961,2595.12,1002.901,2599.268,992.582,2541.844L992.582,2541.844z"/>
		</g>
		<g>
			<path style="fill:#633B20;" d="M3173.647,2453.007c-17.67,18.354-46.805,10.413-79.569,10.571
				c-31.87,0.157-44.175,35.761-45.595,98.817c-1.683,74.994-36.657,103.498-82.463,104.76
				c-63.319,1.683-105.548-44.912-115.699-98.396c-10.149-53.485-22.193-101.605-58.796-96.504
				c-24.77,3.419-54.904,45.281-81.042,87.248c-26.506,42.546-62.741,38.286-93.401,21.615c-38.233-20.668-68-80.937-126.217-55.22
				c-58.218,25.717-55.062,117.382-128.689,136.314c-61.952,15.882-121.168-58.27-178.807-10.518
				c-25.928,21.457-51.381,75.415-115.699,72.365c-68.999-3.313-102.762-65.633-122.221-94.663
				c-37.444-55.957-61.531-37.708-88.772-9.887c-30.713,31.344-68.262,73.732-142.941,63.267
				c-68.999-9.729-95.242-60.322-131.161-84.303c-52.591-35.183-69.525-7.415-76.098,36.498
				c-6.205,41.441-11.991,89.246-19.563,137.577c-48.594-6.574-97.24-14.41-144.571-23.824c-5.574-27.715-5.733-59.953,0.79-90.561
				c12.779-59.69,20.51-136.893-33.396-132.265c-55.903,4.838-72.995,79.99-122.956,76.098
				c-54.063-4.155-61.479-79.938-69.631-106.338c-8.098-26.401-32.132-29.188-62.582,12.464
				c-24.034,32.764-47.542,87.616-87.09,94.821c-0.788-0.631-1.577-1.262-2.314-1.893c-83.462-70.05-78.517-197.74-64.581-279.308
				c66.264-18.827,241.338-32.08,466.477-40.863c440.814-17.25,1073.477-17.46,1457.493-9.467
				c202.737,4.155,336.158,10.623,335.37,18.091c-1.947,18.144,4.312,36.761,11.464,55.746v0.053
				C3175.646,2377.96,3177.75,2415.563,3173.647,2453.007z"/>
		</g>
		<g>
			<path style="fill:#512717;" d="M2034.227,2824.369c-310.807,0-864.568-27.133-1081.195-208.843
				c-137.401-115.295-55.979-364.647-52.442-375.207c2.747-8.206,10.704-13.468,19.354-12.834l1114.283,85.857l1114.283-85.857
				c8.665-0.629,16.612,4.628,19.359,12.839c3.527,10.558,84.891,259.909-52.496,375.2c0,0,0,0-0.005,0.002
				C2898.741,2797.235,2345.014,2824.369,2034.227,2824.369z M932.263,2266.313c-14.368,52.064-55.877,235.598,45.041,320.279
				c215.208,180.522,810.828,200.01,1056.923,200.01c246.076,0,841.662-19.488,1056.875-200.013
				c100.903-84.674,59.448-268.191,45.085-320.277l-1100.51,84.795c-0.966,0.073-1.932,0.073-2.898,0L932.263,2266.313z
				 M3103.235,2601.057h0.049H3103.235z"/>
		</g>
		<g>
			<path style="fill:#FFCE00;" d="M872.53,2283.547c-27.285,51.607,25.011,96.633,22.736,156.925
				c-1.871,49.579-2.707,85.427,36.381,104.021c62.714,29.832,92.432-47.337,122.895-88.97
				c30.463-41.633,67.019-20.816,75.142,5.585s1.338,100.165,55.398,104.35c49.965,3.868,63.378-54.853,119.257-59.671
				c53.915-4.648,78.642,45.207,65.852,104.893c-12.187,56.873-28.137,114.255-2.617,142.902
				c26.918,31.465,78.076,26.466,97.512,15.93c11.26-8.552,16.982-19.676,19.573-35.411c8.74-53.077-5.045-85.052,1.776-130.526
				c6.585-43.897,42.943-66.363,85.411-44.708c38.484,19.623,66.261,70.748,135.284,80.451
				c74.682,10.499,116.362-29.399,147.081-60.754c27.236-27.8,66.812-30.215,91.251-1.755
				c22.763,26.509,49.451,102.542,118.426,105.834c64.307,3.07,86.442-46.219,112.375-67.696
				c57.66-47.752,120.188,25.007,182.146,9.091c73.614-18.91,66.975-107.25,125.193-132.974
				c58.219-25.725,88.134,29.431,126.338,50.125c30.696,16.627,74.607,20.89,101.12-21.693
				c26.122-41.955,56.417-73.726,81.235-77.173c36.556-5.077,67.019,25.724,77.173,79.204
				c10.154,53.48,25.434,111.489,88.636,115.585c61.391,3.979,88.675-52.296,90.381-127.31c1.433-63.032,14.53-84.924,46.411-85.081
				c41.127-0.203,75.653-1.38,90.012-43.972c16.769-49.738-29.895-98.339-25.011-143.813
				C3163.18,2206.385,920.818,2192.214,872.53,2283.547z"/>
		</g>
		<g>
			<path style="fill:#FF9022;" d="M3188.268,2364.655c-0.474,5.364-1.578,10.729-3.365,16.093
				c-14.357,42.598-48.857,43.755-89.983,43.966c-31.923,0.158-45.016,22.035-46.437,85.091c-0.79,34.342-6.89,64.739-19.249,87.248
				l-5.68-11.57c0,0,12.991-47.016,5.891-107.653c-7.1-60.636,3.418-101.5,33.396-105.812
				C3096.498,2367.127,3131.259,2425.976,3188.268,2364.655z"/>
		</g>
		<g>
			<path style="fill:#FF9022;" d="M2958.29,2637.126h-0.158c-63.214-4.102-78.517-62.109-88.667-115.594
				c-10.151-53.484-40.601-84.302-77.151-79.201c-24.823,3.418-55.115,35.183-81.252,77.15
				c-26.506,42.598-70.418,38.338-101.131,21.72c-38.181-20.721-68.104-75.888-126.323-50.119
				c-58.217,25.717-51.592,114.069-125.218,132.949c-61.95,15.935-124.481-56.85-182.12-9.098
				c-25.927,21.51-48.068,70.787-112.386,67.684c-27.767-1.315-48.646-14.41-65.212-31.344
				c28.031,15.409,60.795,25.085,88.772,10.623c72.575-37.549,69.42-101.394,116.962-117.382
				c45.438-15.356,64.475,43.598,109.02,57.481c29.502,9.256,59.112,15.988,91.454-28.557
				c29.188-40.231,13.411-102.761,50.066-130.582c55.167-41.915,99.659-9.572,138.313,52.801
				c31.081,50.119,50.802,57.586,77.938,44.649c44.229-21.036,22.614-120.643,69.42-146.727
				c52.906-29.503,136.051,10.308,151.145,77.413C2900.177,2508.174,2901.176,2583.168,2958.29,2637.126z"/>
		</g>
		<g>
			<path style="fill:#FF9022;" d="M1629.329,2603.889c-20.984-16.776-37.812-35.025-57.481-45.018
				c-42.494-21.667-78.833,0.789-85.407,44.702c-1.42,9.361-1.946,18.091-1.999,26.558c-6.047-24.612-9.098-55.956-3.47-93.558
				c11.254-75.047,82.935-84.145,111.807-31.081C1611.291,2539.518,1615.235,2571.073,1629.329,2603.889z"/>
		</g>
		<g>
			<path style="fill:#FF9022;" d="M1362.327,2661.581c-1.21,1.63-2.472,3.103-3.734,4.417c3.207-17.775,7.625-36.603,11.622-55.325
				c12.779-59.69-11.938-109.546-65.896-104.865c-55.85,4.786-69.261,63.529-119.222,59.638
				c-13.569-1.052-23.351-6.469-30.45-14.462c16.04,0.736,52.801-2.314,86.406-37.918c32.186-34.026,60.006-89.719,108.126-72.049
				C1406.135,2461.895,1421.702,2581.117,1362.327,2661.581z"/>
		</g>
		<g>
			<path style="fill:#FF9022;" d="M1173.738,2563.289c-41.758-13.042-36.551-77.781-44.071-102.183
				c-8.099-26.4-44.649-47.226-75.099-5.575c-30.503,41.599-60.216,118.802-122.905,88.983c-14.566-6.942-23.612-16.25-29.081-27.82
				c21.456,4.155,57.06,6.521,81.726-15.567c27.452-24.56,53.221-77.781,30.134-125.06
				c-15.621-31.975,113.963-50.013,142.414,13.095C1182.31,2445.644,1142.446,2505.282,1173.738,2563.289z"/>
		</g>
		<g>
			<path style="fill:#FF9022;" d="M3184.639,2330.734c-455.579,4.419-1157.61,242.716-1157.61,242.716
				c-367.102-158.624-927.286-187.338-1150.637-209.794c-10.361-27.032-18.355-52.643-3.839-80.096
				c48.278-91.35,2290.629-77.15,2287.369-46.648C3156.661,2266.995,3176.015,2298.496,3184.639,2330.734z"/>
		</g>
		<g>
			<path style="fill:#512717;" d="M1426.151,2796.465c-25.14,0-53.281-7.645-72.923-30.61
				c-29.287-32.866-17.481-86.459-4.981-143.197c1.171-5.301,2.342-10.621,3.479-15.937c6.245-29.129,2.278-55.238-10.602-69.844
				c-8.323-9.436-20.135-13.563-35.156-12.278c-21.169,1.825-34.527,13.749-49.988,27.555
				c-18.227,16.276-38.903,34.734-72.357,32.129c-56.945-4.41-64.463-64.271-68.503-96.429c-1.078-8.574-2.093-16.673-3.483-21.191
				c-2.43-7.894-9.358-14.488-16.481-15.685c-10.811-1.808-20.52,9.055-25.37,15.695c-5.308,7.25-10.738,15.9-16.49,25.06
				c-25.335,40.325-63.59,101.278-129.761,69.81c-50.827-24.177-49.032-71.589-47.139-121.784
				c0.82-21.669-6.894-41.552-15.056-62.602c-11.831-30.514-25.243-65.1-5.503-102.437c8.011-15.151,21.418-40.508,379.125-59.375
				c242.177-12.772,547.779-17.595,761.499-19.391c504.212-4.23,1109.858,3.779,1165.7,20.847
				c17.407,5.323,16.807,19.386,16.51,22.15c-1.669,15.544,5.274,33.766,12.621,53.059c10.806,28.377,23.052,60.538,11.514,94.77
				c-19.012,56.387-68.249,56.628-107.816,56.823c-11.636,0.056-26.111,0.127-27.628,66.627
				c-1.273,56.228-15.968,98.795-42.494,123.096c-18.281,16.751-41.143,24.365-67.981,22.628
				c-82.115-5.323-97.634-87.018-105.967-130.905c-8.07-42.499-30.034-67.637-56.028-64.027
				c-12.714,1.766-38.103,20.754-67.795,68.449c-33.215,53.344-88.706,48.59-126.146,28.319
				c-12.563-6.803-23.745-16.305-34.556-25.492c-27.443-23.316-45.748-36.966-75.162-23.965
				c-20.535,9.072-31.341,29.541-43.86,53.242c-16.924,32.051-36.108,68.376-84.261,80.746c-32.01,8.23-62.936-2.679-90.208-12.3
				c-37.069-13.07-60.994-20.096-84.593-0.534c-5.181,4.288-10.826,10.663-16.802,17.412
				c-21.432,24.206-50.851,57.421-108.514,54.601c-62.692-2.993-95.009-55.025-116.393-89.455
				c-5.689-9.165-11.065-17.82-15.461-22.94c-7.377-8.587-16.783-13.304-27.209-13.648c-12.373-0.398-25.672,5.537-36.23,16.317
				c-25.657,26.187-66.761,68.127-136.815,68.135c-8.377,0-17.154-0.6-26.384-1.896c-50.778-7.14-81.92-34.439-106.943-56.374
				c-12.397-10.867-23.106-20.252-34.288-25.955c-14.261-7.269-27.297-8.274-37.708-2.917
				c-10.611,5.459-18.066,17.708-20.447,33.605c-2.913,19.405-1.625,36.645-0.259,54.898c1.6,21.413,3.41,45.687-1.561,75.892
				c-3.469,21.083-11.982,36.139-26.784,47.383c-0.766,0.583-1.576,1.105-2.425,1.564
				C1463.605,2791.793,1445.793,2796.462,1426.151,2796.465z M1311.007,2486.614c23.389,0,43.914,8.816,58.438,25.282
				c21.081,23.899,28.082,61.346,19.208,102.74c-1.151,5.386-2.337,10.777-3.522,16.149c-9.909,44.98-20.159,91.487-3.454,110.236
				c19.637,22.945,58.892,19.254,73.187,12.512c5.23-4.313,9.123-10.094,11.168-22.499c4.24-25.758,2.747-45.763,1.161-66.947
				c-1.459-19.527-2.966-39.718,0.571-63.312c4.206-28.053,18.974-50.5,40.518-61.587c21.364-10.985,46.992-9.972,72.142,2.856
				c15.383,7.843,28.326,19.188,42.031,31.2c23.443,20.552,47.69,41.804,87.306,47.375c62.37,8.77,97.522-21.142,130.961-55.269
				c17.954-18.32,41.587-28.419,64.449-27.633c20.979,0.688,40.377,10.204,54.618,26.789c6.294,7.328,12.134,16.729,18.896,27.619
				c19.261,31.012,43.236,69.61,86.11,71.657c39.601,1.91,59.365-20.381,78.441-41.918c6.972-7.872,13.558-15.307,20.984-21.459
				c41.294-34.196,85.623-18.552,121.242-5.996c24.35,8.589,47.354,16.7,68.254,11.341c31.961-8.213,45.08-33.049,60.263-61.807
				c13.807-26.143,29.453-55.774,61.995-70.152c52.559-23.208,88.574,7.386,114.875,29.731c9.767,8.296,18.993,16.134,28.087,21.062
				c11.704,6.34,51.779,23.996,76.099-15.07c18.52-29.739,55.438-80.446,94.668-85.893c47.622-6.611,86.179,30.444,98.322,94.385
				c11.646,61.329,27.048,97.397,71.303,100.264c16.407,1.044,29.478-3.12,40.03-12.785c18.486-16.937,29.229-51.069,30.253-96.109
				c0.761-33.508,2.347-103.228,65.195-103.535c43.933-0.215,62.76-3.091,72.211-31.122c7.211-21.391-1.644-44.643-11.021-69.264
				c-6.718-17.644-13.617-35.759-15.066-54.535c-82.905-11.585-570.582-21.581-1119.337-17.395
				c-785.127,5.974-1100.388,36.088-1133.12,60.328c-10.05,20.486-3.43,39.967,8.084,69.654
				c8.762,22.596,18.695,48.207,17.583,77.68c-1.995,52.808-0.307,73.923,25.623,86.257c30.819,14.661,49.29-4.427,81.549-55.796
				c6.123-9.74,11.899-18.942,17.993-27.272c23.296-31.827,48.9-32.851,62.117-30.639c21.096,3.549,39.708,20.354,46.309,41.821
				c2.361,7.657,3.518,16.895,4.864,27.594c5.23,41.635,11.641,61.753,33.947,63.48c16.573,1.305,27.126-7.326,44.285-22.645
				c17.022-15.195,38.201-34.105,71.898-37.01C1305.518,2486.733,1308.285,2486.614,1311.007,2486.614z M889.227,2292.372
				L889.227,2292.372L889.227,2292.372z M872.532,2283.547h0.049H872.532z"/>
		</g>
		<g>
			<path style="fill:#FF9022;" d="M3312.879,2255.481c0,0-640.404,75.143-1278.652,245.657
				c-413.55-138.1-1254.869-186.762-1254.869-186.762c-23.355-52.803-32.508-102.563-32.508-102.563l766.685-26.412l520.692,88.096
				l520.695-88.096l757.957-16.233C3312.879,2169.169,3321.002,2206.063,3312.879,2255.481z"/>
		</g>
		<g>
			<path style="fill:#512717;" d="M2034.227,2520.021c-2.025,0-4.045-0.324-5.981-0.973
				c-406.412-135.715-1241.59-185.335-1249.981-185.82c-7.064-0.41-13.314-4.737-16.178-11.214
				c-23.979-54.213-33.42-104.662-33.81-106.784c-0.99-5.401,0.415-10.968,3.859-15.249c3.44-4.279,8.577-6.85,14.066-7.038
				l766.685-26.411c1.268-0.044,2.542,0.037,3.801,0.254l517.541,87.562l517.545-87.562c0.907-0.154,1.824-0.241,2.747-0.261
				l757.957-16.234c0.137-0.002,0.273-0.005,0.41-0.005c8.84,0,16.529,6.152,18.437,14.822c0.361,1.651,8.806,41.04,0.19,93.438
				c-1.366,8.309-8.07,14.709-16.432,15.69c-6.391,0.751-646.448,76.96-1275.98,245.146
				C2037.5,2519.809,2035.866,2520.021,2034.227,2520.021z M792.159,2296.249c103.054,6.55,856.396,58.058,1242.653,185.189
				c577.696-153.838,1162.505-230.576,1261.319-242.927c2.235-20.818,1.508-38.43,0.395-50.105l-739.817,15.846l-519.331,87.867
				c-2.088,0.351-4.215,0.351-6.303,0l-518.804-87.779l-741.92,25.56C774.566,2246.39,781.64,2270.608,792.159,2296.249z
				 M3312.881,2255.482h0.049H3312.881z"/>
		</g>
		<g>
			<path style="fill:#FFCE00;" d="M3312.879,2169.169c0,0-640.404,75.143-1278.652,245.657
				c-413.55-138.1-1287.377-203.012-1287.377-203.012c50.81-64.964,129.987-134.014,129.987-134.014l636.698,21.291l520.692,88.096
				l520.695-88.096l636.639-21.291C3191.561,2077.799,3271.246,2111.289,3312.879,2169.169z"/>
		</g>
		<g>
			<path style="fill:#FFCE00;" d="M3312.855,2169.176c0,0-231.347,27.137-554.567,85.828
				c-214.517,38.969-469.475,91.823-724.065,159.823c-187.8-62.688-470.421-110.335-723.066-143.625c-0.053,0-0.053,0-0.053,0
				c-134.685-17.723-260.797-31.396-359.509-41.178c-124.008-12.201-204.734-18.196-204.734-18.196
				c18.986-24.245,41.862-49.067,63.161-70.682c35.709-36.235,66.79-63.372,66.79-63.372l636.713,21.299l520.698,88.089
				l520.698-88.089l636.66-21.299C3191.582,2077.774,3271.256,2111.274,3312.855,2169.176z"/>
		</g>
		<g>
			<path style="fill:#FF9022;" d="M3312.855,2169.176c0,0-231.347,27.137-554.567,85.828
				c-125.375-8.152-214.831-23.455-214.831-23.455s-107.653,129.951-478.678,123.745
				c-379.283-6.311-480.309-128.689-480.309-128.689s-97.029,37.549-273.313,44.597c-0.053,0-0.053,0-0.053,0
				c-134.685-17.723-260.797-31.396-359.509-41.178c-63.792-24.034-111.018-56.429-141.573-88.878
				c35.709-36.235,66.79-63.372,66.79-63.372l636.713,21.299l520.698,88.089l520.698-88.089l636.66-21.299
				C3191.582,2077.774,3271.256,2111.274,3312.855,2169.176z"/>
		</g>
		<g>
			<path style="fill:#512717;" d="M2655.359,2281.42c-200.989,45.404-418.173,96.448-617.855,147.184
				c-2.671,0.665-5.342,0.497-7.762-0.345c-43.484-15.034-87.842-28.07-132.547-39.967
				c-134.537-35.49-271.364-61.571-408.644-84.688c-3.859-0.641-6.464-4.288-5.825-8.147c0.632-3.796,4.191-6.377,7.977-5.85
				c138.285,19.691,276.449,42.412,412.554,74.655c45.436,10.865,90.674,22.911,135.457,37.132l-8.14-0.251
				c153.243-43.101,308.872-77.46,465.277-106.86c45.315-8.255,111.704-20.072,156.841-26.772c3.876-0.603,7.512,2.068,8.094,5.947
				C2661.337,2277.141,2658.925,2280.593,2655.359,2281.42L2655.359,2281.42z"/>
		</g>
		<g>
			<path style="fill:#512717;" d="M1127.043,2258.158c-85.579-6.378-249.206-16.904-334.093-23.069
				c-0.001-0.001-23.797-2.018-23.797-2.018c-7.906-0.837-15.863-1.495-23.701-2.427c-5.04,6.384-14.297,7.477-20.681,2.439
				c-6.386-5.04-7.477-14.3-2.439-20.684l9.645-12.219c29.94-37.823,62.881-71.476,97.434-104.474
				c11.487-10.894,22.938-21.484,35.015-32.139c3.743-3.297,8.416-4.82,13.043-4.642c2.53,0.253,636.916,20.975,639.211,21.544
				c0.007,0,520.696,88.097,520.696,88.097h-6.299c2.402-0.261,521.14-88.484,523.21-88.35c0.002,0,636.641-21.291,636.641-21.291
				c2.755-0.124,5.563,0.431,7.95,1.466c49.864,23.047,95.698,52.801,129.33,97.748c9.165,11.055,1.396,29.289-13.131,29.783
				c-161.676,12.538-322.448,37.54-482.486,63.438c-12.532,1.687-15.229-16.188-3.251-18.601
				c155.36-28.708,325.986-55.902,481.336-82.343c0.001-0.001-13.128,29.779-13.128,29.779
				c-13.345-18.459-31.206-34.673-50.708-48.824c-19.218-13.922-40.99-26.508-62.597-36.164c0,0,7.947,1.466,7.947,1.466
				c0.299-0.123-644.967,21.848-634.131,21.036c0.01-0.001-520.685,88.095-520.685,88.095c-2.117,0.359-4.291,0.332-6.301,0
				l-520.69-88.096c11.778,0.827-636.246-21.23-634.181-21.035c0.001,0,13.042-4.642,13.042-4.642
				c-11.285,9.955-22.716,20.518-33.829,31.061c-33.035,31.488-65.613,64.855-93.692,100.354l-13.475-30.463
				c31.635,1.393,64.312,4.523,95.7,8.062c57.896,7.008,133.922,16.012,190.342,24.243c31.674,4.368,63.296,9.169,94.888,14.109
				C1141.105,2241.649,1138.807,2258.765,1127.043,2258.158L1127.043,2258.158z"/>
		</g>
		<g>
			<path style="fill:#FF3B27;" d="M3265.524,1958.094c0,0,0,106.706,0,117.802c0,2.367-0.21,4.681-0.526,7.047
				c-11.885,74.889-212.833,134.527-459.01,134.527c-253.802,0-459.536-63.372-459.536-141.574c0-14.673,0-117.802,0-117.802
				s120.696-11.307,263.321-18.354c63.949-3.156,132.317-5.417,196.215-5.417C3023.87,1934.323,3265.524,1958.094,3265.524,1958.094
				z"/>
		</g>
		<g style="opacity:0.5;">
			<path style="fill:#FFFFFF;" d="M2924.35,2120.358c5.816-7.866,52.195,0.928,180.733-24.937
				c46.748-9.407-9.281,29.577-81.526,35.652C2971.466,2135.453,2918.533,2128.224,2924.35,2120.358z"/>
		</g>
		<g>
			<path style="fill:#D81D13;" d="M3264.998,2082.944c-11.885,74.889-212.833,134.527-459.01,134.527
				c-253.802,0-459.536-63.372-459.536-141.574c0-14.673,0-117.802,0-117.802s120.696-11.307,263.321-18.354v83.981
				c0,61.221,43.349,113.709,103.396,125.642c65.338,12.985,159.37,23.362,275.518,13.518
				C3141.726,2149.892,3223.766,2111.606,3264.998,2082.944z"/>
		</g>
		<g>
			<path style="fill:#512717;" d="M2806,2236.344c-231.932,0-478.427-56.235-478.427-160.451v-117.808
				c0-9.745,7.416-17.891,17.119-18.8c2.542-0.239,256.58-23.845,461.308-23.845c216.281,0,458.961,23.613,461.391,23.852
				c9.665,0.951,17.032,9.079,17.032,18.793v117.808C3284.423,2180.109,3037.927,2236.344,2806,2236.344z M2365.335,1975.359
				v100.534c0,57.914,188.457,122.684,440.666,122.684s440.661-64.771,440.661-122.684v-100.598
				c-58.765-5.301-259.209-22.089-440.661-22.089C2633.638,1953.207,2425.636,1970.12,2365.335,1975.359z"/>
		</g>
		<g>
			<ellipse style="fill:#D81D13;" cx="2805.999" cy="1958.087" rx="459.544" ry="121.275"/>
		</g>
		<g>
			<path style="fill:#512717;" d="M2806,2098.243c-237.748,0-478.427-48.144-478.427-140.157
				c0-92.014,240.68-140.157,478.427-140.157s478.422,48.144,478.422,140.157C3284.423,2050.1,3043.748,2098.243,2806,2098.243z
				 M2806,1855.695c-269.001,0-440.666,60.643-440.666,102.391s171.665,102.391,440.666,102.391
				c268.996,0,440.661-60.643,440.661-102.391S3074.996,1855.695,2806,1855.695z"/>
		</g>
		<g>
			<path style="fill:#FF3B27;" d="M1755.143,2080.799c0,78.186-205.745,141.568-459.544,141.568s-459.544-63.382-459.544-141.568
				c0-14.66,0-117.807,0-117.807s253.332-23.761,459.544-23.761c217.86,0,459.544,23.761,459.544,23.761
				S1755.143,2069.728,1755.143,2080.799z"/>
		</g>
		<g style="opacity:0.5;">
			<path style="fill:#FFFFFF;" d="M965.733,2109.993c0.751,22.804,139.829,53.295,232.636,59.176
				c103.205,6.54,157.771-2.983,157.771-13.084c0-5.387-113.606-10.284-216.549-23.511
				C1049.518,2121,965.499,2102.875,965.733,2109.993z"/>
		</g>
		<g>
			<path style="fill:#D81D13;" d="M1755.125,1962.969c0,0,0,106.759,0,117.855c0,58.849-116.593,109.283-282.568,130.635
				c23.088-16.829,35.867-35.394,35.867-54.852c0-11.097,0-117.803,0-117.803s-47.437-47.226-119.854-98.292
				C1576.949,1945.456,1755.125,1962.969,1755.125,1962.969z"/>
		</g>
		<g>
			<path style="fill:#512717;" d="M1295.6,2241.25c-231.932,0-478.427-56.235-478.427-160.451v-117.808
				c0-9.745,7.416-17.891,17.12-18.8c2.542-0.239,256.58-23.845,461.308-23.845c216.286,0,458.961,23.613,461.391,23.852
				c9.665,0.951,17.032,9.079,17.032,18.793V2080.8C1774.022,2185.015,1527.527,2241.25,1295.6,2241.25z M854.934,1980.265V2080.8
				c0,57.913,188.457,122.684,440.666,122.684s440.661-64.771,440.661-122.684v-100.598
				c-58.765-5.301-259.204-22.089-440.661-22.089C1123.237,1958.113,915.236,1975.025,854.934,1980.265z"/>
		</g>
		<g>
			<ellipse style="fill:#D81D13;" cx="1295.599" cy="1962.992" rx="459.544" ry="121.275"/>
		</g>
		<g>
			<path style="fill:#512717;" d="M1295.6,2103.152c-237.748,0-478.427-48.144-478.427-140.16
				c0-92.014,240.68-140.157,478.427-140.157s478.422,48.144,478.422,140.157C1774.022,2055.008,1533.347,2103.152,1295.6,2103.152z
				 M1295.6,1860.601c-269.001,0-440.666,60.643-440.666,102.391c0,41.75,171.665,102.393,440.666,102.393
				c268.996,0,440.661-60.643,440.661-102.393C1736.26,1921.244,1564.596,1860.601,1295.6,1860.601z"/>
		</g>
		<g>
			<path style="fill:#FF3B27;" d="M2518.265,2168.705c0,78.186-205.745,141.568-459.544,141.568
				c-253.799,0-459.544-63.382-459.544-141.568c0-14.66,0-117.807,0-117.807s253.332-23.761,459.544-23.761
				c217.86,0,459.544,23.761,459.544,23.761S2518.265,2157.633,2518.265,2168.705z"/>
		</g>
		<g>
			<path style="fill:#FF3B27;" d="M2518.266,2050.9c0,0,0,15.567,0,35.446v82.357c0,78.202-205.735,141.574-459.536,141.574
				s-459.535-63.372-459.535-141.574v-77.939c0-21.93,0-39.864,0-39.864s253.328-23.771,459.535-23.771
				C2276.56,2027.13,2518.266,2050.9,2518.266,2050.9z"/>
		</g>
		<g style="opacity:0.5;">
			<path style="fill:#FFFFFF;" d="M1906.063,2247.654c4.022-6.187,42.739,0.948,147.373,1.862
				c105.482,0.922,168.746-12.999,170.215-6.503c1.469,6.496-74.51,28.819-168.677,28.842
				C1984.441,2271.872,1902.041,2253.841,1906.063,2247.654z"/>
		</g>
		<g>
			<path style="fill:#D81D13;" d="M2518.266,2050.9c0,0,0,15.567,0,35.446c-18.459,45.596-51.486,96.188-109.704,114.279
				c-134.578,41.757-202.315-17.618-333.212-4.628c-73.47,7.31-160.506,42.703-277.467,26.348
				c-93.559-13.043-162.242-83.935-198.687-131.582c0-21.93,0-39.864,0-39.864s253.328-23.771,459.535-23.771
				C2276.56,2027.13,2518.266,2050.9,2518.266,2050.9z"/>
		</g>
		<g>
			<path style="fill:#512717;" d="M2058.723,2329.156c-231.932,0-478.427-56.235-478.427-160.451v-117.808
				c0-9.745,7.416-17.891,17.12-18.8c2.542-0.239,256.58-23.845,461.308-23.845c216.281,0,458.961,23.613,461.391,23.852
				c9.665,0.951,17.032,9.079,17.032,18.793v117.808C2537.146,2272.921,2290.65,2329.156,2058.723,2329.156z M1618.057,2068.171
				v100.534c0,57.914,188.457,122.684,440.666,122.684s440.661-64.771,440.661-122.684v-100.598
				c-58.765-5.301-259.209-22.089-440.661-22.089C1886.361,2046.019,1678.359,2062.931,1618.057,2068.171z"/>
		</g>
		<g>
			<ellipse style="fill:#D81D13;" cx="2058.721" cy="2050.898" rx="459.544" ry="121.275"/>
		</g>
		<g>
			<ellipse style="fill:#FF514D;" cx="2042.91" cy="2055.874" rx="141.994" ry="54.119"/>
		</g>
		<g>
			<path style="fill:#512717;" d="M2058.723,2191.055c-237.748,0-478.427-48.144-478.427-140.157s240.68-140.157,478.427-140.157
				s478.422,48.144,478.422,140.157S2296.471,2191.055,2058.723,2191.055z M2058.723,1948.507
				c-269.001,0-440.666,60.643-440.666,102.391c0,41.748,171.665,102.391,440.666,102.391c268.996,0,440.661-60.643,440.661-102.391
				C2499.384,2009.15,2327.719,1948.507,2058.723,1948.507z"/>
		</g>
		<g>
			<path style="fill:#63F233;" d="M974.717,1583.831c0,0-54.756,19.28-115.681,20.823c-60.926,1.542-84.062,84.062,6.17,158.869
				c0,0-83.291,23.908-74.036,74.807c9.255,50.9,67.095,57.841,99.486,101.8c32.391,43.959,53.985,89.075,119.152,94.473
				c65.167,5.399,106.427-67.342,140.36-71.846c33.933-4.504,69.28,2.823,118.638,59.378
				c49.358,56.555,135.733,32.905,210.797,7.198c75.064-25.707,121.851-27.249,172.751,9.769
				c50.9,37.018,129.049,99.743,204.114,84.319c75.064-15.424,133.308-119.795,186.706-119.795
				c53.398,0,77.108,111.254,204.555,115.167c117.224,3.599,175.836-9.255,205.656-54.499c29.82-45.244,65.81-68.895,102.828-56.555
				s103.856,91.517,171.723,107.455s107.969-15.424,130.592-61.183c22.622-45.758,75.064-105.913,170.694-63.753
				c95.63,42.16,147.044,50.386,213.882,9.255c66.838-41.131,45.244-127.507,22.622-159.383
				c-22.622-31.877-53.471-37.018-53.471-37.018s58.498-63.18,42.159-128.535c-18.509-74.036-132.648-80.206-200.514-44.216"/>
		</g>
		<g>
			<path style="fill:#63F233;" d="M3243.119,2010.033c-66.842,41.125-118.275,32.921-213.885-9.256
				c-95.662-42.178-148.094,17.986-170.708,63.74c-22.614,45.754-62.74,77.15-130.583,61.215
				c-67.894-15.988-134.736-95.136-171.708-107.495c-37.024-12.306-73.049,11.307-102.867,56.587
				c-29.818,45.228-88.405,58.06-205.629,54.484c-127.478-3.892-151.144-115.173-204.577-115.173
				c-30.87,0-63.372,34.868-99.764,67.316c-0.052,0-0.052,0.053-0.052,0.053c-26.611,23.613-55.22,45.964-86.88,52.433
				c-40.758,8.362-82.409-6.311-120.116-27.4c-31.765-17.723-60.742-39.969-83.988-56.903
				c-50.907-37.024-97.712-35.499-172.759-9.782c-75.047,25.717-161.453,49.33-210.783-7.205
				c-49.382-56.535-84.724-63.898-118.644-59.375c-33.921,4.523-75.205,77.255-140.364,71.839
				c-65.159-5.417-86.774-50.487-119.17-94.453c-32.396-43.966-90.246-50.908-99.449-101.815
				c-9.255-50.907,73.995-74.784,73.995-74.784c-90.192-74.836-67.105-157.351-6.153-158.875
				c60.899-1.578,115.699-20.826,115.699-20.826l2079.163,46.49c67.842-35.972,182.016-29.819,200.528,44.228
				c16.302,65.37-42.178,128.531-42.178,128.531s30.87,5.154,53.484,37.024C3288.348,1882.501,3309.963,1968.907,3243.119,2010.033z
				"/>
		</g>
		<g>
			<path style="fill:#63F233;" d="M3243.119,2010.038c-66.842,41.125-118.275,32.921-213.885-9.256
				c-95.662-42.178-148.094,17.986-170.708,63.74c-22.614,45.754-62.74,77.15-130.583,61.216
				c-67.894-15.988-134.736-95.136-171.708-107.495c-37.024-12.306-73.049,11.307-102.867,56.587
				c-4.522,6.889-9.73,12.99-15.724,18.407c-33.289,30.345-90.508,39.127-189.905,36.077c-24.98-0.736-45.963-5.627-63.95-12.99
				c-73.941-30.24-97.661-102.183-140.627-102.183c-30.87,0-63.372,34.867-99.764,67.316c-0.052,0-0.052,0.052-0.052,0.052
				c-26.611,23.613-55.22,45.964-86.88,52.433c-40.758,8.362-82.409-6.311-120.116-27.4c-31.765-17.723-60.742-39.969-83.988-56.903
				c-50.907-37.024-97.712-35.499-172.759-9.782c-75.047,25.717-161.453,49.33-210.783-7.205
				c-49.382-56.535-84.724-63.897-118.644-59.375c-33.921,4.523-75.205,77.255-140.364,71.839
				c-65.159-5.417-86.774-50.487-119.17-94.453c-32.396-43.966-90.246-50.908-99.449-101.815
				c-9.255-50.907,73.995-74.784,73.995-74.784c-90.192-74.836-67.105-157.351-6.153-158.876
				c60.899-1.578,115.699-20.826,115.699-20.826l2079.163,46.49c67.842-35.972,182.016-29.819,200.528,44.229
				c16.302,65.37-42.178,128.531-42.178,128.531s30.87,5.154,53.484,37.024C3288.348,1882.506,3309.963,1968.912,3243.119,2010.038z
				"/>
		</g>
		<g>
			<path style="fill:#63F233;" d="M3243.119,2010.038c-66.842,41.125-118.275,32.921-213.885-9.256
				c-44.807-19.774-80.148-17.039-107.336-3.892h-0.053c-30.871,14.935-51.328,43.334-63.319,67.631
				c-22.614,45.754-62.74,77.15-130.583,61.216c-28.872-6.784-57.534-25.033-83.829-44.702c-0.053-0.053-0.053-0.053-0.053-0.053
				c-35.499-26.506-66.579-55.641-87.826-62.74c-37.024-12.306-73.049,11.307-102.867,56.587c-4.522,6.889-9.73,12.99-15.724,18.407
				c-33.289,30.345-90.508,39.127-189.905,36.077c-24.98-0.736-45.963-5.627-63.95-12.99
				c-73.941-30.24-97.661-102.183-140.627-102.183c-30.87,0-63.372,34.867-99.764,67.316c-0.052,0-0.052,0.052-0.052,0.052
				c-26.611,23.613-55.22,45.964-86.88,52.433c-40.758,8.362-82.409-6.311-120.116-27.4c-31.765-17.723-60.742-39.969-83.988-56.903
				c-50.907-37.024-97.712-35.499-172.759-9.782c-75.047,25.717-161.453,49.33-210.783-7.205
				c-49.382-56.535-84.724-63.897-118.644-59.375c-33.921,4.523-75.205,77.255-140.364,71.839
				c-65.159-5.417-86.774-50.487-119.17-94.453c-32.396-43.966-90.246-50.908-99.449-101.815
				c-9.255-50.907,73.995-74.784,73.995-74.784c-90.192-74.836-67.105-157.351-6.153-158.876
				c60.899-1.578,115.699-20.826,115.699-20.826l2079.163,46.49c67.842-35.972,182.016-29.819,200.528,44.229
				c16.302,65.37-42.178,128.531-42.178,128.531s30.87,5.154,53.484,37.024C3288.348,1882.506,3309.963,1968.912,3243.119,2010.038z
				"/>
		</g>
		<g>
			<path style="fill:#63F233;" d="M3243.119,2010.038c-66.842,41.125-118.275,32.921-213.885-9.256
				c-44.807-19.774-80.148-17.039-107.336-3.892h-0.053c-30.871,14.935-51.328,43.334-63.319,67.631
				c-22.614,45.754-62.74,77.15-130.583,61.216c-28.872-6.784-57.534-25.033-83.829-44.702c-0.053-0.053-0.053-0.053-0.053-0.053
				c-35.499-26.506-66.579-55.641-87.826-62.74c-37.024-12.306-73.049,11.307-102.867,56.587c-4.522,6.889-9.73,12.99-15.724,18.407
				c-33.289,30.345-90.508,39.127-189.905,36.077c-24.98-0.736-45.963-5.627-63.95-12.99
				c-73.941-30.24-97.661-102.183-140.627-102.183c-30.87,0-63.372,34.867-99.764,67.316c-0.052,0-0.052,0.052-0.052,0.052
				c-26.611,23.613-55.22,45.964-86.88,52.433c-40.758,8.362-82.409-6.311-120.116-27.4c-31.765-17.723-60.742-39.969-83.988-56.903
				c-50.907-37.024-97.712-35.499-172.759-9.782c-75.047,25.717-161.453,49.33-210.783-7.205
				c-49.382-56.535-84.724-63.897-118.644-59.375c-33.921,4.523-75.205,77.255-140.364,71.839
				c-65.159-5.417-86.774-50.487-119.17-94.453c-32.396-43.966-90.246-50.908-99.449-101.815
				c-9.255-50.907,73.995-74.784,73.995-74.784c-90.192-74.836-67.105-157.351-6.153-158.876
				c60.899-1.578,115.699-20.826,115.699-20.826l1845.978,41.284l233.185,5.206c32.974-17.46,76.835-24.98,115.384-19.616
				c40.81,5.627,75.625,25.77,85.144,63.845c16.302,65.37-42.178,128.531-42.178,128.531s30.87,5.154,53.484,37.024
				c1.894,2.682,3.786,5.732,5.68,9.151C3291.346,1896.705,3304.335,1972.383,3243.119,2010.038z"/>
		</g>
		<g style="opacity:0.7;">
			<path style="fill:#FFFFFF;" d="M3191.238,1656.166c21.036,1.392,39.752,26.914,32.173,49.188
				c-2.616,7.688-11.601-12.993-19.044-23.45C3193.455,1666.573,3172.1,1654.899,3191.238,1656.166z"/>
		</g>
		<g style="opacity:0.7;">
			<path style="fill:#FFFFFF;" d="M3079.87,1969.852c-2.712,10.366,71.637,35.885,135.807,7.425
				c59.917-26.575,30.626-90.951,26.295-90.951c-4.331,0,9.282,51.339-38.051,73.627
				C3147.855,1986.353,3081.726,1962.757,3079.87,1969.852z"/>
		</g>
		<g>
			<path style="fill:#48C928;" d="M3271.414,1859.787c-50.171-37.077-46.069,11.938-114.805,28.083
				c-121.011,28.452-194.637-75.678-343.416-7.415l-72.574-198.319l80.095-46.49l233.185,5.206
				c32.974-17.46,76.835-24.98,115.384-19.616c3.892,61.215-40.81,124.482-1.157,130.688c59.006,9.256,86.301-66.843,86.301-66.843
				c16.302,65.37-42.178,128.531-42.178,128.531s30.87,5.154,53.484,37.024C3267.627,1853.318,3269.52,1856.368,3271.414,1859.787z"
				/>
		</g>
		<g>
			<path style="fill:#48C928;" d="M2921.845,1996.89c-30.871,14.935-51.328,43.334-63.319,67.631
				c-22.614,45.754-62.74,77.15-130.583,61.216c-28.872-6.784-57.534-25.033-83.829-44.702c2.157,1.052,57.377,28.293,78.78-5.996
				c25.033-40.179-100.868-78.149-155.772-183.593c-43.966-84.46,113.069-114.016,113.069-114.016l224.561,7.416
				c0,0-136.209,141.153-129.373,212.045C2782.164,2067.729,2859.735,2001.045,2921.845,1996.89z"/>
		</g>
		<g>
			<path style="fill:#48C928;" d="M2419.185,1980.955c-21.877,40.074-83.47,125.014,18.459,112.281
				c-33.289,30.345-90.508,39.127-189.905,36.077c-24.98-0.736-45.963-5.627-63.95-12.99c-0.63-5.206-0.263-10.781,1.104-16.829
				c49.173,16.198,130.004-8.099,38.76-68.788c-114.384-75.993-120.433-214.306-120.433-214.306l276.574-80.727l155.932,138.26
				C2535.726,1873.933,2450.792,1923.158,2419.185,1980.955z"/>
		</g>
		<g>
			<path style="fill:#48C928;" d="M1943.347,2070.99c-26.611,23.613-55.22,45.964-86.88,52.433
				c-40.758,8.362-82.409-6.311-120.116-27.4c-19.775-51.381-49.383-110.335-132.74-166.712l151.514-41.126l181.175,41.126
				c0,0-46.596,61.531-79.465,77.413c-18.354,8.835-33.396,6.626-45.281,2.209c-10.307-3.839-38.075-1.936-14.119,32.535
				C1821.538,2076.148,1896.961,2089.817,1943.347,2070.99z"/>
		</g>
		<g>
			<path style="fill:#48C928;" d="M1187.253,1839.382c-74.257,3.944-140.732,16.618-181.7,91.718
				c-10.885,19.984-42.913,100.185,67.579,95.347l-0.053,0.052c-18.407,11.938-39.18,20.616-63.266,18.617
				c-65.159-5.417-86.774-50.487-119.17-94.453c-15.83-21.509-37.761-34.131-57.114-47.436c1.789-8.677,9.73-12.569,22.404-9.729
				c68.21,15.356,100.448-2.682,122.431-28.136c45.492-52.538,34.394-124.745,34.394-124.745h141.994
				C1154.753,1740.616,1261.459,1835.437,1187.253,1839.382z"/>
		</g>
		<g>
			<path style="fill:#48C928;" d="M1059.144,1774.064c0,0-227.402,10.623-266.319,81.515c-0.683-2.156-1.209-4.417-1.631-6.731
				c-9.255-50.907,73.995-74.784,73.995-74.784c-33.815-28.083-51.75-57.271-57.692-82.83
				c15.988,12.674,38.339,23.087,67.894,21.562c48.068-2.524,47.017-64.581,41.442-103.813c9.256-1.736,17.828-3.576,25.296-5.364
				l70.629,59.059L1059.144,1774.064z"/>
		</g>
		<g>
			<path style="fill:#512717;" d="M1832.719,2155.194c-68.576,0.002-134.849-48.712-180.524-82.285
				c-3.776-2.774-7.426-5.457-10.943-8.018c-42.772-31.11-80.573-32.842-155.531-7.174
				c-59.219,20.283-169.454,58.033-231.142-12.646c-48.075-55.079-77.831-56.282-101.927-53.076c-7.679,1.02-21.662,12.78-34,23.155
				c-26.463,22.257-62.551,52.727-110.407,48.793c-64.878-5.376-92.877-45.378-119.95-84.061c-4.171-5.96-8.401-12.007-12.841-18.03
				c-11.451-15.539-26.95-25.875-43.362-36.818c-24.677-16.454-52.647-35.103-59.502-72.806
				c-7.372-40.547,25.423-68.896,57.852-84.859c-43.811-46.505-49.998-92.707-39.562-122.826
				c10.031-28.958,35.966-47.444,67.678-48.246c57.028-1.444,109.377-19.579,109.899-19.762c9.831-3.449,20.613,1.722,24.067,11.558
				c3.454,9.836-1.703,20.605-11.533,24.067c-2.352,0.829-58.297,20.291-121.477,21.889c-16.051,0.407-28.058,8.738-32.946,22.855
				c-7.523,21.711,1.239,61.607,50.686,102.603c5.391,4.469,7.865,11.553,6.43,18.405c-1.434,6.852-6.542,12.351-13.27,14.28
				c-0.639,0.188-66.561,20.879-60.667,53.279c3.796,20.871,18.925,31.89,43.299,48.141c17.544,11.699,37.43,24.957,52.813,45.836
				c4.625,6.274,9.031,12.57,13.378,18.778c25.092,35.849,44.909,64.166,92.131,68.076c32.156,2.688,59.165-20.032,82.978-40.055
				c18.642-15.68,34.742-29.222,53.34-31.693c49.036-6.508,89.486,13.146,135.347,65.683
				c41.523,47.573,120.076,25.845,190.453,1.751c72.591-24.867,129.707-31.478,189.975,12.36c3.571,2.595,7.274,5.318,11.099,8.128
				c49.158,36.135,116.49,85.637,178.109,72.967c33.239-6.83,64.385-35.349,94.507-62.927c32.161-29.446,62.536-57.257,96-57.257
				c29.312,0,49.832,21.742,71.552,44.76c30.214,32.012,64.453,68.296,133.581,70.418c113.588,3.481,164.903-8.987,189.306-46.017
				c36.796-55.838,81.046-78.592,124.57-64.08c18.056,6.02,38.874,22.667,62.975,41.943c31.463,25.165,70.625,56.482,107.094,65.044
				c50.646,11.895,86.432-4.833,109.343-51.169c40.347-81.602,113.334-108.767,195.239-72.662
				c97.58,43.019,139.792,45.27,196.366,10.45c18.33-11.277,29.77-27.555,34.015-48.383c6.943-34.068-6.679-69.596-16.89-83.988
				c-17.447-24.577-40.401-29.17-41.372-29.356c-6.747-1.278-12.377-6.137-14.524-12.66c-2.152-6.523-0.698-13.719,3.971-18.759
				c0.488-0.534,51.31-56.672,37.693-111.129c-4.547-18.195-17.007-31.944-37.035-40.865
				c-37.123-16.534-95.717-12.773-136.313,8.752c-9.211,4.879-20.637,1.381-25.526-7.835c-4.888-9.214-1.381-20.644,7.835-25.531
				c51.49-27.309,121.145-31.375,169.372-9.884c30.741,13.695,50.9,36.586,58.306,66.202c12.616,50.478-12.109,98.305-30.151,124.75
				c12.143,6.64,26.409,17.361,38.537,34.456c17.291,24.357,31.893,70.23,23.101,113.385c-6.323,31.029-24.033,56.274-51.227,73.008
				c-75.631,46.541-134.888,34.488-231.391-8.06c-80.788-35.603-124.062,10.167-146.148,54.845
				c-30.527,61.743-84.452,87.013-151.837,71.196c-44.763-10.511-87.613-44.78-122.047-72.316
				c-20.393-16.312-39.66-31.717-51.33-35.608c-33.063-11.014-62.341,20.581-81.09,49.034
				c-37.552,56.967-112.822,66.329-222.004,62.98c-84.72-2.6-128.166-48.634-159.887-82.244
				c-17.354-18.391-31.058-32.915-44.085-32.915c-18.783,0-45.075,24.069-70.498,47.346
				c-32.322,29.592-68.957,63.136-112.407,72.064C1851.073,2154.325,1841.871,2155.194,1832.719,2155.194z"/>
		</g>
		<g>
			<path style="fill:#512717;" d="M860.813,1755.676c25.48-2.63,50.89-15.211,66.1-36.349c2.013-3.106,6.281-3.961,9.235-1.659
				c2.254,1.734,3.008,4.701,2.054,7.23c-11.003,31.339-38.197,55.148-68.605,67.508c0,0-4.43,1.561-4.43,1.561
				c-10.299,3.63-21.589-1.776-25.218-12.073C834.868,1768.523,846.766,1753.783,860.813,1755.676L860.813,1755.676z"/>
		</g>
		<g>
			<path style="fill:#512717;" d="M3123.001,1807.576c22.415-6.364,45.023-10.373,68.291-12.019
				c7.84-0.61,15.802-0.676,23.872-0.585c10.536,0.117,18.983,8.752,18.866,19.291c-0.117,10.536-8.755,18.983-19.291,18.866
				c-8.735-0.875-16.679-4.75-25.528-6.169c-20.892-4.536-42.802-6.829-64.197-6.955
				C3117.609,1820.25,3115.931,1809.63,3123.001,1807.576L3123.001,1807.576z"/>
		</g>
		<g>
			<path style="fill:#FFB743;" d="M2043.172,949.382c770.181,0,1047.511,389.292,1094.603,569.153
				c42.674,162.982-39.292,293.835-276.093,370.181c-282.263,91.003-818.511,72.494-818.511,72.494s-536.248,18.509-818.51-72.494
				c-236.8-76.345-318.767-207.198-276.093-370.181C995.662,1338.674,1272.991,949.382,2043.172,949.382z"/>
		</g>
		<g>
			<path style="fill:#FFAB31;" d="M2043.172,949.382c770.181,0,1047.511,389.292,1094.603,569.153
				c42.674,162.982-39.292,293.835-276.093,370.181c-282.263,91.003-818.511,72.494-818.511,72.494s-536.248,18.509-818.51-72.494
				c-236.8-76.345-318.767-207.198-276.093-370.181C995.662,1338.674,1272.991,949.382,2043.172,949.382z"/>
		</g>
		<g>
			<path style="fill:#FFAB31;" d="M2861.69,1888.692c-282.259,91.016-818.54,72.542-818.54,72.542s-536.231,18.474-818.49-72.542
				c-236.801-76.347-318.755-207.163-276.101-370.171c27.936-106.586,136.674-286.714,380.984-415.828
				c167.913-88.713,399.857-153.295,713.606-153.295c256.226,0,457.932,43.105,614.73,107.236
				c314.5,128.614,448.47,341.885,479.91,461.887C3180.446,1681.529,3098.491,1812.345,2861.69,1888.692z"/>
		</g>
		<g>
			<path style="fill:#FF8327;" d="M3052.112,1791.682c-46.017,38.181-109.073,70.787-190.43,97.029
				c-282.254,90.981-818.519,72.522-818.519,72.522s-536.212,18.459-818.517-72.522c-236.762-76.361-318.751-207.207-276.1-370.184
				c37.233-142.152,218.25-415.097,672.789-523.328c-221.038,73.367-363.371,288.514-374.707,417.194
				c-18.561,210.702,124.361,325.165,352.567,408.897C2033.518,1980.65,2684.136,1907.591,3052.112,1791.682z"/>
		</g>
		<g>
			<path style="fill:#512717;" d="M2162.982,1981.777c-66.639,0-111.548-1.398-119.808-1.676
				c-30.009,1.012-544.491,16.8-824.308-73.416c-298.347-96.188-321.594-266.769-288.565-392.932
				c12.373-47.258,69.391-213.078,283.598-362.722c209.465-146.334,488.473-220.533,829.275-220.533
				c340.797,0,619.805,74.199,829.27,220.533c214.208,149.644,271.226,315.464,283.598,362.72
				c33.034,126.163,9.787,296.744-288.565,392.934C2664.657,1972.078,2338.521,1981.775,2162.982,1981.777z M2043.174,968.266
				c-736.422,0-1026.07,363.071-1076.341,555.053c-42.04,160.582,46.656,277.473,263.625,347.425
				c275.924,88.962,806.749,71.781,812.063,71.594c0.434-0.015,0.868-0.015,1.302,0c5.347,0.181,536.221,17.342,812.063-71.594
				c216.974-69.954,305.67-186.845,263.625-347.425C3069.24,1331.337,2779.596,968.266,2043.174,968.266z"/>
		</g>
		<g>
			<path style="fill:#63F233;" d="M1020.017,1892.631c0,0,69.727-67.019,152.316-63.634c93.462,3.83,150.962,116.437,202.411,122.53
				c51.449,6.093,108.313-43.325,173.979-38.587s116.437,81.912,136.746,83.943l-134.434-15.275l-205.412,33.41l-135.414-93.073
				L1020.017,1892.631z"/>
		</g>
		<g style="opacity:0.7;">
			<path style="fill:#FFFFFF;" d="M1685.443,1996.89l-11.149-1.263c-46.28-20.984-85.775-51.328-136.683-51.749
				c-65.843-0.526-122.536,44.702-174.022,38.601c-51.434-6.1-108.915-118.696-202.368-122.536
				c-41.704-1.736-94.294,15.777-136.156,33.5l-5.05-0.789c0,0,69.735-67.053,152.303-63.635
				c93.453,3.787,150.987,116.435,202.419,122.483c51.435,6.1,108.337-43.282,173.97-38.549
				C1614.393,1917.689,1665.143,1994.839,1685.443,1996.89z"/>
		</g>
		<g>
			<path style="fill:#512717;" d="M1016.746,1889.227c45.505-46.086,111.006-81.066,177.416-70.409
				c65.86,11.749,109.338,68.362,159.277,106.269c7.15,4.883,13.285,8.54,20.633,10.233c18.41,2.548,35.515-2.58,54.555-9.023
				c28.477-10.082,58.899-23.75,93.419-27.322c53.998-7.477,98.602,25.145,132.624,62.73c7.967,7.857,21.487,25.385,31.268,30.479
				c2.804,0.675,4.964,3.541,3.757,6.435c-4.791,9.055-23.646-5.211-28.743-8.603c-40.096-29.748-81.713-70.773-135.501-61.79
				c-51.985,5.365-110.208,52.792-165.783,35.83c-24.802-9.66-43.325-28.825-61.429-45.645
				c-60.67-59.417-108.105-97.134-195.249-66.629c-28.265,10.079-55.664,25.415-79.702,44.25c-2.022,1.771-5.183,1.493-6.835-0.644
				C1014.99,1893.523,1015.158,1890.896,1016.746,1889.227L1016.746,1889.227z"/>
		</g>
		<g>
			<path style="fill:#63F233;" d="M1817.475,2009.068c0,0,30.886,15.401,69.473-26.486c33.533-36.401,69.403-91.852,147.265-87.92
				c97.202,4.908,150.174,128.622,189.437,136.069c0,0-97.005-44.508-184.444-44.508c-45.552,0-126.639,42.035-172.011,47.976
				C1825.474,2039.661,1817.475,2009.068,1817.475,2009.068z"/>
		</g>
		<g style="opacity:0.7;">
			<path style="fill:#FFFFFF;" d="M2212.557,2025.972c-5.995-2.472-14.252-5.732-24.138-9.309c-0.052,0-0.052,0-0.052,0
				c-50.435-36.235-83.776-96.871-154.143-100.448c-77.887-3.944-107.322,58.431-147.253,87.931
				c-28.23,20.855-50.802,18.302-67.999,8.73c-0.948-1.998-1.367-3.366-1.42-3.734c1.577,0.736,31.816,14.199,69.419-26.558
				c33.5-36.393,69.366-91.875,147.253-87.931C2122.575,1899.124,2174.376,2001.781,2212.557,2025.972z"/>
		</g>
		<g style="opacity:0.5;">
			<path style="fill:#FFFFFF;" d="M2223.654,2030.706c-3.576-0.684-7.258-2.314-11.097-4.733
				C2219.657,2028.865,2223.654,2030.706,2223.654,2030.706z"/>
		</g>
		<g>
			<path style="fill:#512717;" d="M1819.232,2005.547c20.971,5.727,41.765-7.622,55.886-22.418
				c26.211-29.579,48.832-64.128,84.786-83.422c39.344-22.158,90.377-22.489,130.109-1.328
				c48.341,25.428,77.931,71.068,112.255,111.102c6.414,6.852,13.449,14.579,22.25,17.422c4.393,1.266,3.317,8.305-1.601,7.691
				c-22.068-4.513-36.683-23.714-52.03-38.263c-27.801-28.888-55.54-59.78-91.269-77.486c-28.659-14.646-62.567-16.195-92.858-6.32
				c-14.578,5.313-28.204,12.807-40.303,22.835c-39.036,28.445-73.215,99.3-130.739,77.227
				C1811.219,2010.163,1814.4,2003.451,1819.232,2005.547L1819.232,2005.547z"/>
		</g>
		<g>
			<path style="fill:#63F233;" d="M2416.246,1986.223c0,0,39.127-77.75,111.433-79.548c66.071-1.644,85.465,61.798,116.364,76.261"
				/>
		</g>
		<g>
			<path style="fill:#63F233;" d="M2644.062,1982.953l-227.822,3.261c0,0,0.316-0.578,0.895-1.683
				c6.205-11.359,44.544-76.203,110.545-77.834c57.271-1.473,79.516,46.122,104.549,68.21
				C2636.068,1978.273,2639.959,1981.06,2644.062,1982.953z"/>
		</g>
		<g style="opacity:0.7;">
			<path style="fill:#FFFFFF;" d="M2632.229,1974.907c-22.271-0.414-51.11-41.524-96.503-43.724
				c-51.057-2.475-95.295,40.216-118.592,53.348c6.205-11.359,44.544-76.203,110.545-77.834
				C2584.95,1905.225,2607.196,1952.819,2632.229,1974.907z"/>
		</g>
		<g>
			<path style="fill:#512717;" d="M2412.03,1984.1c21.299-61.629,91.054-111.891,156.434-83.56
				c24.637,10.54,41.555,32.056,55.915,52.602c6.828,9.699,13.312,18.908,21.667,25.518c2.351,1.531,3.041,4.778,1.242,7.013
				c-7.033,7.565-31.493-15.135-36.983-20.276c-16.194-15.62-31.76-32.069-52.303-39.633
				c-54.446-19.245-105.162,21.246-137.537,62.58C2417.474,1992.925,2410.074,1989.262,2412.03,1984.1L2412.03,1984.1z"/>
		</g>
		<g>
			<path style="fill:#63F233;" d="M2775.373,1979.958c0,0,39.365-105.769,118.129-121.006
				c87.394-16.907,175.074,72.604,255.085,26.909c0,0,59.975,55.009-92.228,46.917
				C2904.156,1924.686,2775.373,1979.958,2775.373,1979.958z"/>
		</g>
		<g style="opacity:0.7;">
			<path style="fill:#FFFFFF;" d="M3151.507,1889.027c-68.157,62.582-164.082-22.982-256.642-3.944
				c-51.906,10.676-82.304,58.901-106.968,89.982c-7.574,2.787-11.885,4.628-12.465,4.838
				c1.209-3.208,40.494-105.97,118.065-120.958c87.406-16.881,175.074,72.627,255.064,26.926
				C3148.562,1885.871,3149.825,1887.028,3151.507,1889.027z"/>
		</g>
		<g>
			<path style="fill:#512717;" d="M2770.949,1978.311c17.535-63.885,65.804-132.045,137.959-135.418
				c48.368-2.205,92.805,20.005,136.599,35.247c32.964,11.76,67.799,18.702,100.74,3.622c2.401-1.099,5.253-0.014,6.311,2.408
				c0.925,2.108,0.19,4.523-1.629,5.791c-23.745,17.02-55.634,20.841-84.139,16.021c-45.305-6.716-86.664-27.931-131.607-33.912
				c-73.207-11.911-122.421,51.789-155.384,109.534C2777.395,1986.557,2769.5,1983.795,2770.949,1978.311L2770.949,1978.311z"/>
		</g>
		<g>
			<g>
				<path style="fill:#E0AE80;" d="M1178.102,1299.835c-24.375,9.63-74.21,55.412-36.117,82.264
					c34.712,24.468,67.293-28.72,68.208-63.911C1210.784,1295.49,1193.83,1293.621,1178.102,1299.835z"/>
			</g>
			<g>
				<path style="fill:#512717;" d="M1160.087,1397.732c-8.055,0-16.075-2.654-23.54-7.918
					c-16.71-11.777-18.793-26.172-17.598-36.176c3.386-28.363,37.527-55.411,55.686-62.585c13.422-5.303,25.462-4.967,33.908,0.942
					c5.279,3.688,11.48,11.27,11.089,26.441c-0.683,26.275-16.89,62.407-41.884,74.96
					C1171.976,1396.29,1166.019,1397.732,1160.087,1397.732z M1192.516,1306.206c-3.074,0-6.913,0.817-10.943,2.41l0,0
					c-16.158,6.381-41.699,29.038-43.875,47.261c-0.551,4.613-0.141,11.548,9.728,18.503c7.313,5.154,14.451,5.85,21.847,2.139
					c17.373-8.726,30.951-38.123,31.478-58.575c0.083-3.066-0.205-8.504-3.03-10.477
					C1196.512,1306.623,1194.707,1306.206,1192.516,1306.206z M1178.104,1299.834h0.049H1178.104z"/>
			</g>
		</g>
		<g>
			<g>
				<path style="fill:#FFD9B3;" d="M1485.117,1434.137c-25.966-3.555-91.845,11.92-71.805,53.997
					c18.261,38.343,72.731,7.954,90.78-22.27C1515.733,1446.37,1501.872,1436.431,1485.117,1434.137z"/>
			</g>
			<g>
				<path style="fill:#512717;" d="M1441.192,1515.562c-0.751,0-1.498-0.017-2.249-0.054c-15.202-0.712-27.336-8.994-34.156-23.313
					c-8.792-18.459-3.547-32.027,2.396-40.16c16.856-23.057,59.858-29.885,79.212-27.253l0,0c14.3,1.956,24.638,8.152,29.107,17.444
					c2.786,5.801,4.479,15.451-3.298,28.477C1499.084,1492.668,1468.572,1515.559,1441.192,1515.562z M1476.724,1443.053
					c-18.061,0-44.816,7.155-54.296,20.125c-2.742,3.749-5.786,9.994-0.595,20.896c3.844,8.072,9.733,12.185,17.998,12.573
					c19.242,0.956,45.665-18.054,56.16-35.625c1.571-2.63,3.981-7.508,2.493-10.611c-1.537-3.196-7.289-5.911-14.646-6.918h-0.005
					C1481.691,1443.197,1479.295,1443.053,1476.724,1443.053z"/>
			</g>
		</g>
		<g>
			<g>
				<path style="fill:#FFD9B3;" d="M1832.52,1471.721c14.737,21.672,70.328,60.263,88.179,17.211
					c16.267-39.231-42.768-59.363-77.304-52.544C1821.119,1440.786,1823.01,1457.737,1832.52,1471.721z"/>
			</g>
			<g>
				<path style="fill:#512717;" d="M1893.703,1517.86c-27.453,0-58.555-25.487-68.991-40.828c0-0.002,0-0.002,0-0.002
					c-8.113-11.933-10.431-23.757-6.518-33.295c2.444-5.955,8.484-13.668,23.369-16.607c25.799-5.084,64.595,2.803,82.315,24.438
					c9.65,11.775,11.616,26.331,5.542,40.984c-7.83,18.883-21.418,24.072-31.439,25.096
					C1896.567,1517.791,1895.138,1517.86,1893.703,1517.86z M1840.325,1466.41c9.767,14.368,37.464,34.361,55.73,32.451
					c4.62-0.473,11.299-2.393,15.919-13.546c3.425-8.257,2.542-15.385-2.698-21.784c-12.324-15.036-43.992-21.852-64.053-17.881
					c-3.01,0.595-8.25,2.066-9.557,5.252c-1.347,3.279,0.483,9.367,4.659,15.51V1466.41z"/>
			</g>
		</g>
		<g>
			<g>
				<path style="fill:#FFD9B3;" d="M2247.757,1248.556c-22.3-13.769-88.801-26.307-87.524,20.281
					c1.164,42.453,63.274,36.735,92.019,16.413C2270.792,1272.142,2262.146,1257.44,2247.757,1248.556z"/>
			</g>
			<g>
				<path style="fill:#512717;" d="M2201.11,1310.255c-10.27,0.002-20.164-1.82-28.531-6.008
					c-13.612-6.811-21.35-19.296-21.784-35.152c-0.561-20.437,9.728-30.719,18.461-35.747c24.755-14.251,66.849-3.076,83.461,7.174
					c12.28,7.579,19.218,17.43,19.54,27.736c0.2,6.433-2.161,15.939-14.553,24.699
					C2243.424,1303.054,2221.528,1310.255,2201.11,1310.255z M2199.042,1245.397c-7.84,0-15.071,1.269-20.364,4.315
					c-4.025,2.317-9.338,6.796-9.011,18.866c0.249,8.936,3.961,15.08,11.363,18.783c17.393,8.699,49.071,1.993,65.776-9.821
					c2.503-1.771,6.684-5.254,6.577-8.694c-0.107-3.545-4.264-8.355-10.587-12.255c0-0.003,0-0.003,0-0.003
					C2232.934,1250.5,2214.761,1245.397,2199.042,1245.397z"/>
			</g>
		</g>
		<g>
			<g>
				<path style="fill:#FFD9B3;" d="M2457.303,1054.643c21.24,15.353,86.654,32.691,88.766-13.866
					c1.925-42.426-60.437-41.237-90.583-23.058C2436.042,1029.445,2443.597,1044.736,2457.303,1054.643z"/>
			</g>
			<g>
				<path style="fill:#512717;" d="M2510.615,1080.331c-22.574,0-47.368-9.743-58.843-18.034
					c-11.695-8.455-17.9-18.783-17.471-29.085c0.268-6.43,3.313-15.739,16.31-23.577c22.511-13.58,61.677-19.374,85.725-5.071
					c13.08,7.784,19.886,20.796,19.164,36.642c-0.927,20.42-11.934,29.929-21.008,34.308
					C2527.417,1078.928,2519.177,1080.331,2510.615,1080.331z M2501.877,1015.214c-14.729,0-30.829,4.147-41.519,10.589
					c-2.625,1.583-7.05,4.754-7.191,8.194c-0.146,3.542,3.649,8.643,9.67,12.995l0,0c14.075,10.175,46.9,19.491,63.448,11.516
					c4.181-2.02,9.806-6.098,10.353-18.159c0.405-8.933-2.854-15.329-9.962-19.559
					C2520.158,1016.912,2511.298,1015.214,2501.877,1015.214z"/>
			</g>
		</g>
		<g>
			<g>
				<path style="fill:#FFD9B3;" d="M2857.42,1169.745c-14.483-21.843-69.619-61.081-87.972-18.241
					c-16.724,39.038,42.072,59.859,76.685,53.444C2868.459,1200.811,2866.765,1183.839,2857.42,1169.745z"/>
			</g>
			<g>
				<path style="fill:#512717;" d="M2832.682,1215.539c-24.052,0-52.559-8.838-66.854-26.709
					c-9.509-11.887-11.304-26.465-5.059-41.045c8.05-18.791,21.701-23.818,31.737-24.728c28.453-2.542,61.99,25.194,72.781,41.469
					l0,0c7.977,12.026,10.153,23.877,6.128,33.368c-2.512,5.925-8.64,13.57-23.56,16.337
					C2843.152,1215.102,2838.029,1215.539,2832.682,1215.539z M2796.369,1141.769c-0.737,0-1.454,0.029-2.161,0.095
					c-4.625,0.417-11.329,2.259-16.081,13.356c-3.522,8.218-2.722,15.356,2.444,21.815c12.148,15.183,43.724,22.367,63.839,18.627
					c3.015-0.559,8.274-1.969,9.616-5.137c1.385-3.264-0.371-9.372-4.479-15.563l0,0
					C2840.323,1161.045,2814.582,1141.769,2796.369,1141.769z"/>
			</g>
		</g>
		<g>
			<g>
				<path style="fill:#FFD9B3;" d="M2477.295,1439.767c-25.989-3.383-91.764,12.528-71.447,54.472
					c18.515,38.221,72.782,7.473,90.63-22.87C2507.991,1451.797,2494.065,1441.95,2477.295,1439.767z"/>
			</g>
			<g>
				<path style="fill:#512717;" d="M2433.584,1521.482c-0.644,0-1.283-0.015-1.927-0.039c-15.207-0.615-27.39-8.813-34.308-23.089
					c-8.909-18.398-3.757-32,2.132-40.172c16.71-23.172,59.682-30.3,79.036-27.777l0,0c14.31,1.864,24.682,7.989,29.209,17.249
					c2.83,5.781,4.586,15.419-3.108,28.499C2491.592,1498.293,2461.046,1521.482,2433.584,1521.482z M2469.414,1448.737
					c-18.066,0-45.138,7.345-54.613,20.486c-2.718,3.769-5.718,10.033-0.454,20.901c3.893,8.045,9.806,12.119,18.071,12.451
					c19.432,0.946,45.548-18.356,55.926-35.996c1.551-2.639,3.932-7.535,2.42-10.628c-1.556-3.183-7.323-5.862-14.685-6.821l0,0
					C2474.058,1448.866,2471.814,1448.737,2469.414,1448.737z"/>
			</g>
		</g>
		<g>
			<g>
				<path style="fill:#FFD9B3;" d="M2651.875,1296.673c-14.798-21.63-70.498-60.064-88.227-16.962
					c-16.156,39.277,42.936,59.242,77.453,52.326C2663.364,1327.576,2661.425,1310.63,2651.875,1296.673z"/>
			</g>
			<g>
				<path style="fill:#512717;" d="M2626.369,1342.831c-23.745,0-51.54-8.435-65.8-25.745c-9.679-11.748-11.685-26.297-5.655-40.965
					c7.777-18.908,21.354-24.133,31.371-25.187c28.39-2.986,62.355,24.294,73.382,40.408l0,0
					c8.147,11.911,10.494,23.73,6.611,33.278c-2.43,5.959-8.44,13.692-23.321,16.673
					C2637.853,1342.316,2632.233,1342.831,2626.369,1342.831z M2590.802,1269.584c-0.864,0-1.712,0.044-2.537,0.129
					c-4.62,0.488-11.294,2.425-15.885,13.59c-3.401,8.269-2.498,15.39,2.761,21.774c12.363,15.01,44.065,21.708,64.107,17.703
					c3.005-0.603,8.24-2.088,9.538-5.276c1.337-3.283-0.512-9.367-4.703-15.5l0,0
					C2634.721,1288.318,2608.995,1269.584,2590.802,1269.584z"/>
			</g>
		</g>
		<g>
			<g>
				<path style="fill:#FFD9B3;" d="M2896.596,1335.356c1.565,26.161,29.563,87.771,66.937,59.927
					c34.057-25.373-6.349-72.889-39.507-84.712C2902.639,1302.946,2895.586,1318.475,2896.596,1335.356z"/>
			</g>
			<g>
				<path style="fill:#512717;" d="M2944.65,1411.81c-5.986,0-11.192-1.566-15.334-3.491
					c-25.896-12.046-40.982-52.908-42.148-72.399l0,0c-0.859-14.405,3.205-25.745,11.45-31.937
					c5.142-3.864,14.271-7.408,28.58-2.308c24.76,8.831,54.052,35.481,58.199,63.141c2.259,15.051-3.508,28.56-16.227,38.037
					C2960.208,1409.531,2951.866,1411.81,2944.65,1411.81z M2906.02,1334.793c1.039,17.339,14.622,48.663,31.263,56.403
					c4.206,1.959,10.924,3.727,20.608-3.486c7.167-5.34,10.06-11.914,8.831-20.093c-2.883-19.227-26.594-41.282-45.865-48.153
					c-2.888-1.034-8.143-2.452-10.899-0.381C2907.123,1321.213,2905.576,1327.38,2906.02,1334.793L2906.02,1334.793z"/>
			</g>
		</g>
		<g>
			<g>
				<path style="fill:#FFD9B3;" d="M1484.169,1139.202c-19.081-17.966-81.71-43.602-89.813,2.294
					c-7.385,41.823,54.609,48.692,86.849,34.556C1501.999,1166.934,1496.481,1150.795,1484.169,1139.202z"/>
			</g>
			<g>
				<path style="fill:#512717;" d="M1445.959,1192.218c-17.198,0.002-34.556-4.069-46.622-13.553
					c-11.968-9.406-17.037-23.191-14.28-38.811c3.557-20.132,15.7-28.138,25.262-31.312c27.102-8.987,66.103,10.402,80.324,23.786
					c10.504,9.892,15.324,20.932,13.568,31.092c-1.093,6.342-5.318,15.183-19.217,21.279
					C1474.129,1189.464,1460.097,1192.218,1445.959,1192.218z M1425.858,1125.084c-3.479,0-6.723,0.429-9.597,1.383
					c-4.406,1.461-10.509,4.781-12.607,16.671c-1.556,8.804,0.849,15.571,7.352,20.681c15.28,12.019,47.671,11.807,66.405,3.586
					c2.81-1.232,7.606-3.803,8.196-7.196c0.6-3.493-2.503-9.04-7.909-14.131c-0.005,0-0.005,0-0.005,0
					C1467.133,1136.13,1443.505,1125.084,1425.858,1125.084z"/>
			</g>
		</g>
		<g>
			<g>
				<path style="fill:#FFD9B3;" d="M1804.03,965.259c-22.109-14.073-88.432-27.521-87.793,19.08
					c0.582,42.465,62.765,37.598,91.786,17.672C1826.74,989.159,1818.297,974.34,1804.03,965.259z"/>
			</g>
			<g>
				<path style="fill:#512717;" d="M1757.747,1026.323c-10.699,0-21.018-1.937-29.653-6.408
					c-13.514-6.996-21.081-19.586-21.296-35.447c-0.283-20.44,10.148-30.58,18.944-35.488c24.95-13.909,66.888-2.171,83.359,8.316
					l0,0c12.172,7.747,18.978,17.69,19.159,27.999c0.112,6.435-2.381,15.91-14.895,24.501
					C1799.231,1019.502,1777.818,1026.323,1757.747,1026.323z M1754.385,961.428c-7.464,0-14.334,1.193-19.442,4.042
					c-4.059,2.264-9.431,6.667-9.265,18.739c0.122,8.94,3.752,15.134,11.099,18.937c17.261,8.945,49.037,2.666,65.902-8.918
					c2.527-1.734,6.757-5.159,6.698-8.604c-0.063-3.544-4.152-8.411-10.416-12.399l0,0
					C1788.98,966.873,1770.329,961.428,1754.385,961.428z"/>
			</g>
		</g>
		<g>
			<g>
				<path style="fill:#FFD9B3;" d="M2186.928,975.972c-20.244-16.645-84.452-38.02-89.457,8.316
					c-4.561,42.224,57.754,44.918,88.972,28.65C2206.579,1002.445,2199.99,986.713,2186.928,975.972z"/>
			</g>
			<g>
				<path style="fill:#512717;" d="M2145.229,1031.675c-14.797,0-29.37-3.181-40.294-10.638
					c-12.573-8.582-18.554-21.994-16.851-37.764c2.196-20.323,13.773-29.126,23.101-32.934c26.448-10.789,66.659,5.94,81.739,18.339
					c11.148,9.165,16.7,19.859,15.627,30.114c-0.664,6.403-4.284,15.507-17.744,22.518
					C2178.517,1027.716,2161.733,1031.675,2145.229,1031.675z M2130.9,965.699c-4.664,0-8.967,0.646-12.577,2.122
					c-4.303,1.754-10.167,5.477-11.465,17.481c-0.961,8.889,1.893,15.476,8.723,20.14c16.061,10.968,48.354,8.577,66.503-0.876
					c2.717-1.417,7.333-4.305,7.689-7.73c0.366-3.527-3.103-8.855-8.841-13.57l0,0
					C2170.369,974.579,2148.161,965.699,2130.9,965.699z"/>
			</g>
		</g>
		<g>
			<g>
				<path style="fill:#FFD9B3;" d="M1931.132,1188.971c-20.244-16.645-84.452-38.021-89.457,8.315
					c-4.561,42.224,57.754,44.918,88.972,28.65C1950.783,1215.444,1944.195,1199.712,1931.132,1188.971z"/>
			</g>
			<g>
				<path style="fill:#512717;" d="M1889.434,1244.672c-14.797,0-29.37-3.181-40.294-10.636
					c-12.568-8.582-18.554-21.993-16.851-37.764c2.195-20.323,13.773-29.129,23.101-32.934
					c26.448-10.802,66.664,5.942,81.739,18.339c0,0,0,0,0,0.002c11.148,9.165,16.695,19.862,15.627,30.114
					c-0.668,6.401-4.288,15.502-17.749,22.516C1922.718,1240.713,1905.939,1244.672,1889.434,1244.672z M1875.101,1178.697
					c-4.659,0-8.962,0.649-12.573,2.125c-4.303,1.754-10.167,5.476-11.465,17.481c-0.961,8.889,1.893,15.475,8.723,20.14
					c16.066,10.96,48.349,8.579,66.498-0.878c2.717-1.417,7.333-4.306,7.689-7.728c0.371-3.527-3.098-8.852-8.835-13.57l0,0
					C1914.575,1187.579,1892.362,1178.697,1875.101,1178.697z"/>
			</g>
		</g>
	</g>
</g>
</svg>
